<svg data-v-423bf9ae="" xmlns="http://www.w3.org/2000/svg" viewBox="0 0 325 90" class="iconLeftSlogan"><!----><!----><!----><g data-v-423bf9ae="" id="7e93eb17-31bb-4575-96e7-77c38e95b434" fill="black" transform="matrix(6.097560881055492,0,0,6.097560881055492,85.3046178543542,-19.390244247231145)"><path d="M2.25 13.02L2.25 13.02L1.06 13.02L1.06 13.02Q0.77 13.02 0.77 12.73L0.77 12.73L0.77 6.17L0.77 6.17Q0.77 5.88 1.06 5.88L1.06 5.88L2.25 5.88L2.25 5.88Q2.55 5.88 2.55 6.17L2.55 6.17L2.55 6.64L2.60 6.64L2.60 6.64Q2.91 5.88 3.98 5.88L3.98 5.88L4.42 5.88L4.42 5.88Q6.62 5.88 6.62 8.16L6.62 8.16L6.62 12.73L6.62 12.73Q6.62 13.02 6.31 13.02L6.31 13.02L5.14 13.02L5.14 13.02Q4.84 13.02 4.84 12.73L4.84 12.73L4.84 8.25L4.84 8.25Q4.84 7.80 4.66 7.61L4.66 7.61L4.66 7.61Q4.47 7.42 4.02 7.42L4.02 7.42L3.51 7.42L3.51 7.42Q2.55 7.42 2.55 8.48L2.55 8.48L2.55 12.73L2.55 12.73Q2.55 13.02 2.25 13.02ZM8.16 4.68L8.16 4.68L8.16 3.46L8.16 3.46Q8.16 3.18 8.44 3.18L8.44 3.18L9.66 3.18L9.66 3.18Q9.94 3.18 9.94 3.44L9.94 3.44L9.94 4.68L9.94 4.68Q9.94 4.96 9.66 4.96L9.66 4.96L8.44 4.96L8.44 4.96Q8.16 4.96 8.16 4.68ZM8.16 12.73L8.16 12.73L8.16 6.17L8.16 6.17Q8.16 5.88 8.44 5.88L8.44 5.88L9.65 5.88L9.65 5.88Q9.94 5.88 9.94 6.17L9.94 6.17L9.94 12.73L9.94 12.73Q9.94 12.91 9.88 12.96L9.88 12.96L9.88 12.96Q9.81 13.02 9.66 13.02L9.66 13.02L8.46 13.02L8.46 13.02Q8.16 13.02 8.16 12.73ZM12.70 13.02L12.70 13.02L11.28 13.02L11.28 13.02Q10.92 13.02 11.09 12.73L11.09 12.73L12.85 9.38L11.09 6.17L11.09 6.17Q10.95 5.88 11.26 5.88L11.26 5.88L12.68 5.88L12.68 5.88Q13.02 5.88 13.12 6.17L13.12 6.17L14.00 8.30L14.06 8.30L14.83 6.17L14.83 6.17Q14.92 5.88 15.26 5.88L15.26 5.88L16.66 5.88L16.66 5.88Q17.02 5.88 16.84 6.17L16.84 6.17L15.16 9.38L16.97 12.73L16.97 12.73Q17.04 12.85 16.99 12.94L16.99 12.94L16.99 12.94Q16.94 13.02 16.80 13.02L16.80 13.02L15.36 13.02L15.36 13.02Q15.06 13.02 14.94 12.73L14.94 12.73L14.06 10.58L14.00 10.58L13.12 12.73L13.12 12.73Q13.02 13.02 12.70 13.02ZM21.83 13.02L21.83 13.02L19.99 13.02L19.99 13.02Q19.70 13.02 19.64 12.73L19.64 12.73L17.47 4.34L17.47 4.34Q17.37 4.02 17.75 4.02L17.75 4.02L19.07 4.02L19.07 4.02Q19.35 4.02 19.40 4.31L19.40 4.31L20.87 11.20L20.93 11.20L22.40 4.31L22.40 4.31Q22.46 4.02 22.74 4.02L22.74 4.02L24.05 4.02L24.05 4.02Q24.40 4.02 24.33 4.34L24.33 4.34L22.16 12.73L22.16 12.73Q22.09 13.02 21.83 13.02ZM26.94 13.02L26.94 13.02L25.75 13.02L25.75 13.02Q25.45 13.02 25.45 12.73L25.45 12.73L25.45 4.31L25.45 4.31Q25.45 4.02 25.75 4.02L25.75 4.02L29.16 4.02L29.16 4.02Q30.25 4.02 30.86 4.61L30.86 4.61L30.86 4.61Q31.46 5.21 31.46 6.30L31.46 6.30L31.46 7.64L31.46 7.64Q31.46 8.74 30.86 9.33L30.86 9.33L30.86 9.33Q30.25 9.93 29.16 9.93L29.16 9.93L27.40 9.93L27.40 9.93Q27.23 9.93 27.23 10.08L27.23 10.08L27.23 12.73L27.23 12.73Q27.23 13.02 26.94 13.02ZM27.38 8.37L27.38 8.37L28.87 8.37L28.87 8.37Q29.32 8.37 29.50 8.18L29.50 8.18L29.50 8.18Q29.68 7.99 29.68 7.56L29.68 7.56L29.68 6.38L29.68 6.38Q29.68 5.94 29.50 5.75L29.50 5.75L29.50 5.75Q29.32 5.56 28.87 5.56L28.87 5.56L27.38 5.56L27.38 5.56Q27.23 5.56 27.23 5.71L27.23 5.71L27.23 8.22L27.23 8.22Q27.23 8.37 27.38 8.37ZM34.33 13.02L34.33 13.02L33.17 13.02L33.17 13.02Q32.87 13.02 32.87 12.73L32.87 12.73L32.87 4.31L32.87 4.31Q32.87 4.02 33.17 4.02L33.17 4.02L34.22 4.02L34.22 4.02Q34.51 4.02 34.61 4.21L34.61 4.21L37.44 9.52L37.49 9.52L37.49 4.31L37.49 4.31Q37.49 4.02 37.79 4.02L37.79 4.02L38.95 4.02L38.95 4.02Q39.24 4.02 39.24 4.31L39.24 4.31L39.24 12.73L39.24 12.73Q39.24 13.02 38.95 13.02L38.95 13.02L37.93 13.02L37.93 13.02Q37.62 13.02 37.48 12.74L37.48 12.74L34.68 7.53L34.62 7.53L34.62 12.73L34.62 12.73Q34.62 13.02 34.33 13.02Z"></path></g><!----><g data-v-423bf9ae="" id="1eb9e1fa-3674-424a-94dc-105f837d70a9" transform="matrix(1.6666605443355202,0,0,1.6666605443355202,-18.333136782959606,-8.333302721677597)" stroke="none" fill="black"><path d="M52.577 14.485a1 1 0 0 0-.911-.125 10.956 10.956 0 0 1-14.5-8.526A1 1 0 0 0 36.18 5h-8.36a1 1 0 0 0-.986.834 10.955 10.955 0 0 1-14.501 8.526 1.005 1.005 0 0 0-.911.126 1.002 1.002 0 0 0-.422.817V40c0 9.371 19.743 18.524 20.583 18.909a.999.999 0 0 0 .834 0C33.257 58.524 53 49.371 53 40V15.302a1 1 0 0 0-.423-.817zM51 40c0 6.552-13.33 14.225-19 16.897C26.331 54.225 13 46.552 13 40V16.641A12.947 12.947 0 0 0 28.639 7h6.723a12.947 12.947 0 0 0 15.639 9.641V40z"></path><path d="M40.414 20.09a.997.997 0 0 0-1.324.497l-9.403 20.686-4.979-4.979a.999.999 0 1 0-1.414 1.414l6 6a1 1 0 0 0 1.616-.294l10-22a.999.999 0 0 0-.496-1.324z"></path></g><!----><g data-v-423bf9ae="" id="a362c205-5534-4056-87a9-647ea6cd380d" fill="black" transform="matrix(0.5843693730783391,0,0,0.5843693730783391,89.83611989884436,58.071580924062594)"><path d="M0.28 3.72L0.28 3.72L0.28 3.72Q0.28 3.50 0.60 3.50L0.60 3.50L0.60 3.50Q0.64 3.50 0.76 3.49L0.76 3.49L0.76 3.49Q0.87 3.49 1.12 3.49L1.12 3.49L1.12 3.49Q1.19 3.49 1.51 3.51L1.51 3.51L1.51 3.51Q1.82 3.53 1.96 3.53L1.96 3.53L1.96 3.53Q2.27 3.53 3.15 3.51L3.15 3.51L3.15 3.51Q4.03 3.49 4.27 3.49L4.27 3.49L4.27 3.49Q5.59 3.49 6.54 4.15L6.54 4.15L6.54 4.15Q7.49 4.82 7.49 6.06L7.49 6.06L7.49 6.06Q7.49 6.75 7.24 7.29L7.24 7.29L7.24 7.29Q6.99 7.83 6.63 8.13L6.63 8.13L6.63 8.13Q6.27 8.44 5.83 8.64L5.83 8.64L5.83 8.64Q5.39 8.85 5.05 8.91L5.05 8.91L5.05 8.91Q4.70 8.97 4.44 8.97L4.44 8.97L4.44 8.97Q3.99 8.97 3.53 8.87L3.53 8.87L3.53 8.87Q3.07 8.76 3.07 8.65L3.07 8.65L3.07 8.65Q3.07 8.44 3.25 8.44L3.25 8.44L3.25 8.44Q3.32 8.44 3.54 8.50L3.54 8.50L3.54 8.50Q3.75 8.55 3.96 8.55L3.96 8.55L3.96 8.55Q4.28 8.55 4.65 8.46L4.65 8.46L4.65 8.46Q5.01 8.37 5.40 8.17L5.40 8.17L5.40 8.17Q5.80 7.97 6.05 7.55L6.05 7.55L6.05 7.55Q6.30 7.14 6.30 6.59L6.30 6.59L6.30 6.59Q6.30 5.66 5.54 4.85L5.54 4.85L5.54 4.85Q4.79 4.05 3.46 4.05L3.46 4.05L3.46 4.05Q3.02 4.05 2.87 4.30L2.87 4.30L2.87 4.30Q2.72 4.56 2.72 5.47L2.72 5.47L2.72 5.47Q2.72 8.39 2.70 8.80L2.70 8.80L2.70 8.80Q2.69 9.21 2.69 11.26L2.69 11.26L2.69 11.26Q2.69 12.49 3.26 12.87L3.26 12.87L3.26 12.87Q3.42 12.96 3.65 12.99L3.65 12.99L3.65 12.99Q3.88 13.02 4.03 13.01L4.03 13.01L4.03 13.01Q4.19 13.01 4.30 13.07L4.30 13.07L4.30 13.07Q4.42 13.13 4.42 13.30L4.42 13.30L4.42 13.30Q4.42 13.54 4.10 13.54L4.10 13.54L4.10 13.54Q3.78 13.54 2.97 13.50L2.97 13.50L2.97 13.50Q2.16 13.47 2.10 13.47L2.10 13.47L2.10 13.47Q1.96 13.47 1.55 13.50L1.55 13.50L1.55 13.50Q1.13 13.52 0.80 13.52L0.80 13.52L0.80 13.52Q0.36 13.52 0.36 13.37L0.36 13.37L0.36 13.37Q0.36 13.29 0.39 13.23L0.39 13.23L0.39 13.23Q0.41 13.17 0.43 13.14L0.43 13.14L0.43 13.14Q0.45 13.10 0.52 13.08L0.52 13.08L0.52 13.08Q0.59 13.05 0.62 13.03L0.62 13.03L0.62 13.03Q0.64 13.02 0.75 13.00L0.75 13.00L0.75 13.00Q0.85 12.98 0.90 12.96L0.90 12.96L0.90 12.96Q0.92 12.95 0.98 12.94L0.98 12.94L0.98 12.94Q1.04 12.94 1.06 12.93L1.06 12.93L1.06 12.93Q1.08 12.92 1.13 12.89L1.13 12.89L1.13 12.89Q1.18 12.85 1.20 12.79L1.20 12.79L1.20 12.79Q1.23 12.73 1.28 12.62L1.28 12.62L1.28 12.62Q1.33 12.52 1.39 12.35L1.39 12.35L1.39 12.35Q1.48 12.08 1.54 10.25L1.54 10.25L1.54 10.25Q1.60 8.41 1.60 7.41L1.60 7.41L1.60 7.41Q1.60 6.54 1.59 5.80L1.59 5.80L1.59 5.80Q1.58 5.07 1.58 5.03L1.58 5.03L1.58 5.03Q1.58 4.65 1.34 4.28L1.34 4.28L1.34 4.28Q1.11 3.91 0.56 3.91L0.56 3.91L0.56 3.91Q0.28 3.91 0.28 3.72ZM15.18 3.70L15.18 3.70L15.18 3.70Q15.18 3.47 15.58 3.47L15.58 3.47L17.91 3.47L17.91 3.47Q18.23 3.47 18.65 3.45L18.65 3.45L18.65 3.45Q19.07 3.43 19.31 3.43L19.31 3.43L19.31 3.43Q20.57 3.43 21.46 4.07L21.46 4.07L21.46 4.07Q22.36 4.70 22.36 5.78L22.36 5.78L22.36 5.78Q22.36 6.50 22.09 7.03L22.09 7.03L22.09 7.03Q21.81 7.57 21.48 7.81L21.48 7.81L21.48 7.81Q21.15 8.05 20.88 8.22L20.88 8.22L20.88 8.22Q20.61 8.40 20.61 8.46L20.61 8.46L20.61 8.46Q20.61 8.62 21.78 10.27L21.78 10.27L21.78 10.27Q22.96 11.91 23.39 12.38L23.39 12.38L23.39 12.38Q23.93 13.03 24.68 13.03L24.68 13.03L24.68 13.03Q24.88 13.03 24.88 13.20L24.88 13.20L24.88 13.20Q24.88 13.41 24.71 13.48L24.71 13.48L24.71 13.48Q24.54 13.55 23.84 13.55L23.84 13.55L23.84 13.55Q23.18 13.55 22.64 13.23L22.64 13.23L22.64 13.23Q21.94 12.82 20.27 10.09L20.27 10.09L20.27 10.09Q20.17 9.94 20.13 9.87L20.13 9.87L20.13 9.87Q19.46 8.78 19.10 8.78L19.10 8.78L18.80 8.78L17.95 8.78L17.95 8.78Q17.78 8.78 17.75 8.92L17.75 8.92L17.75 8.92Q17.71 9.06 17.71 9.77L17.71 9.77L17.71 9.77Q17.71 10.44 17.71 10.88L17.71 10.88L17.71 10.88Q17.71 11.31 17.72 11.43L17.72 11.43L17.72 11.43Q17.72 11.55 17.72 11.63L17.72 11.63L17.72 11.63Q17.72 11.70 17.72 11.75L17.72 11.75L17.72 11.75Q17.72 12.32 17.99 12.63L17.99 12.63L17.99 12.63Q18.26 12.95 18.59 13.00L18.59 13.00L18.59 13.00Q18.91 13.05 19.18 13.11L19.18 13.11L19.18 13.11Q19.45 13.17 19.45 13.31L19.45 13.31L19.45 13.31Q19.45 13.54 19.19 13.54L19.19 13.54L19.19 13.54Q19.18 13.54 18.23 13.49L18.23 13.49L18.23 13.49Q17.28 13.44 17.19 13.44L17.19 13.44L17.19 13.44Q16.79 13.44 16.23 13.47L16.23 13.47L16.23 13.47Q15.67 13.50 15.65 13.50L15.65 13.50L15.65 13.50Q15.36 13.50 15.36 13.27L15.36 13.27L15.36 13.27Q15.36 13.12 15.54 13.05L15.54 13.05L15.54 13.05Q15.72 12.99 15.95 12.96L15.95 12.96L15.95 12.96Q16.17 12.94 16.35 12.66L16.35 12.66L16.35 12.66Q16.53 12.38 16.53 11.86L16.53 11.86L16.53 11.86Q16.53 11.49 16.54 9.90L16.54 9.90L16.54 9.90Q16.55 8.30 16.55 7.45L16.55 7.45L16.55 7.45Q16.55 6.58 16.54 5.86L16.54 5.86L16.54 5.86Q16.53 5.14 16.53 5.08L16.53 5.08L16.53 5.08Q16.53 4.56 16.32 4.29L16.32 4.29L16.32 4.29Q16.11 4.02 15.86 3.98L15.86 3.98L15.86 3.98Q15.60 3.95 15.39 3.89L15.39 3.89L15.39 3.89Q15.18 3.84 15.18 3.70ZM17.71 5.54L17.71 5.94L17.71 5.94Q17.71 7.38 17.72 7.72L17.72 7.72L17.72 7.72Q17.74 8.06 17.82 8.12L17.82 8.12L17.82 8.12Q18.03 8.25 18.42 8.25L18.42 8.25L18.56 8.25L18.97 8.25L18.97 8.25Q20.16 8.25 20.67 7.70L20.67 7.70L20.67 7.70Q21.18 7.15 21.18 6.30L21.18 6.30L21.18 6.30Q21.18 5.43 20.50 4.72L20.50 4.72L20.50 4.72Q19.82 4.00 18.45 4.00L18.45 4.00L18.45 4.00Q17.93 4.00 17.82 4.28L17.82 4.28L17.82 4.28Q17.71 4.55 17.71 5.54L17.71 5.54ZM32.23 3.71L32.23 3.71L32.23 3.71Q32.23 3.50 32.62 3.50L32.62 3.50L32.62 3.50Q32.76 3.50 33.26 3.53L33.26 3.53L33.26 3.53Q33.77 3.56 34.20 3.56L34.20 3.56L34.20 3.56Q34.47 3.56 34.71 3.54L34.71 3.54L34.71 3.54Q34.96 3.53 35.43 3.53L35.43 3.53L35.43 3.53Q35.81 3.53 35.81 3.72L35.81 3.72L35.81 3.72Q35.81 3.84 35.17 4.10L35.17 4.10L35.17 4.10Q34.72 4.28 34.72 5.71L34.72 5.71L34.72 5.71Q34.72 7.60 34.70 9.05L34.70 9.05L34.70 9.05Q34.68 10.50 34.68 10.89L34.68 10.89L34.68 10.89Q34.68 12.07 35.03 12.59L35.03 12.59L35.03 12.59Q35.34 13.02 35.70 13.02L35.70 13.02L35.70 13.02Q35.73 13.02 35.84 13.03L35.84 13.03L35.84 13.03Q35.95 13.03 35.98 13.03L35.98 13.03L35.98 13.03Q36.08 13.03 36.18 13.08L36.18 13.08L36.18 13.08Q36.27 13.13 36.27 13.19L36.27 13.19L36.27 13.19Q36.27 13.34 36.20 13.39L36.20 13.39L36.20 13.39Q36.12 13.44 35.92 13.44L35.92 13.44L35.92 13.44Q35.50 13.44 35.15 13.41L35.15 13.41L35.15 13.41Q34.79 13.38 34.59 13.38L34.59 13.38L34.59 13.38Q34.20 13.38 33.74 13.42L33.74 13.42L33.74 13.42Q33.28 13.45 33.05 13.45L33.05 13.45L33.05 13.45Q32.42 13.45 32.42 13.24L32.42 13.24L32.42 13.24Q32.42 13.12 32.56 13.07L32.56 13.07L32.56 13.07Q32.69 13.02 32.86 13.00L32.86 13.00L32.86 13.00Q33.03 12.98 33.21 12.82L33.21 12.82L33.21 12.82Q33.39 12.66 33.46 12.35L33.46 12.35L33.46 12.35Q33.49 12.25 33.55 10.76L33.55 10.76L33.55 10.76Q33.61 9.27 33.61 8.61L33.61 8.61L33.61 7.81L33.61 7.81Q33.61 7.63 33.62 7.12L33.62 7.12L33.62 7.12Q33.63 6.61 33.63 6.30L33.63 6.30L33.63 5.66L33.63 5.66Q33.63 5.04 33.57 4.63L33.57 4.63L33.57 4.63Q33.53 4.30 33.20 4.12L33.20 4.12L33.20 4.12Q32.87 3.93 32.52 3.92L32.52 3.92L32.52 3.92Q32.23 3.91 32.23 3.71ZM43.82 3.70L43.82 3.70L43.82 3.70Q43.82 3.50 44.21 3.50L44.21 3.50L44.21 3.50Q44.28 3.50 44.75 3.53L44.75 3.53L44.75 3.53Q45.22 3.56 45.75 3.56L45.75 3.56L45.75 3.56Q45.88 3.56 46.19 3.54L46.19 3.54L46.19 3.54Q46.51 3.53 46.66 3.53L46.66 3.53L46.66 3.53Q46.98 3.53 47.05 3.56L47.05 3.56L47.05 3.56Q47.12 3.58 47.12 3.68L47.12 3.68L47.12 3.68Q47.12 3.77 46.98 3.84L46.98 3.84L46.98 3.84Q46.84 3.91 46.70 4.02L46.70 4.02L46.70 4.02Q46.55 4.14 46.55 4.34L46.55 4.34L46.55 4.34Q46.55 4.52 46.60 4.71L46.60 4.71L46.60 4.71Q46.65 4.90 46.82 5.29L46.82 5.29L46.82 5.29Q46.98 5.68 47.16 6.08L47.16 6.08L47.16 6.08Q47.33 6.47 47.73 7.34L47.73 7.34L47.73 7.34Q48.13 8.22 48.51 9.07L48.51 9.07L48.51 9.07Q49.69 11.77 49.91 11.77L49.91 11.77L49.91 11.77Q49.98 11.77 50.71 10.08L50.71 10.08L50.71 10.08Q51.45 8.39 52.16 6.54L52.16 6.54L52.16 6.54Q52.88 4.69 52.88 4.35L52.88 4.35L52.88 4.35Q52.88 4.13 52.72 4.01L52.72 4.01L52.72 4.01Q52.56 3.89 52.37 3.87L52.37 3.87L52.37 3.87Q52.19 3.85 52.03 3.80L52.03 3.80L52.03 3.80Q51.87 3.75 51.87 3.64L51.87 3.64L51.87 3.64Q51.87 3.54 51.92 3.52L51.92 3.52L51.92 3.52Q51.97 3.50 52.16 3.50L52.16 3.50L52.16 3.50Q52.21 3.50 52.49 3.51L52.49 3.51L52.49 3.51Q52.77 3.51 53.05 3.51L53.05 3.51L53.05 3.51Q53.30 3.51 53.61 3.50L53.61 3.50L53.61 3.50Q53.93 3.49 54.29 3.49L54.29 3.49L54.29 3.49Q54.56 3.49 54.56 3.68L54.56 3.68L54.56 3.68Q54.56 3.78 54.47 3.85L54.47 3.85L54.47 3.85Q54.38 3.92 54.25 3.98L54.25 3.98L54.25 3.98Q54.12 4.03 53.96 4.21L53.96 4.21L53.96 4.21Q53.79 4.40 53.66 4.69L53.66 4.69L50.54 11.80L50.54 11.80Q50.20 12.56 49.88 13.34L49.88 13.34L49.88 13.34Q49.73 13.72 49.69 13.79L49.69 13.79L49.69 13.79Q49.64 13.86 49.57 13.86L49.57 13.86L49.57 13.86Q49.32 13.86 48.94 12.89L48.94 12.89L48.94 12.89Q48.58 11.98 47.50 9.65L47.50 9.65L47.50 9.65Q46.97 8.48 46.54 7.50L46.54 7.50L46.54 7.50Q46.10 6.52 45.91 6.06L45.91 6.06L45.91 6.06Q45.72 5.60 45.56 5.24L45.56 5.24L45.56 5.24Q45.40 4.87 45.32 4.72L45.32 4.72L45.32 4.72Q45.23 4.56 45.12 4.44L45.12 4.44L45.12 4.44Q44.88 4.17 44.63 4.06L44.63 4.06L44.63 4.06Q44.37 3.95 44.20 3.96L44.20 3.96L44.20 3.96Q44.04 3.96 43.93 3.91L43.93 3.91L43.93 3.91Q43.82 3.86 43.82 3.70ZM60.13 13.33L60.13 13.33L60.13 13.33Q60.13 13.13 60.34 13.06L60.34 13.06L60.34 13.06Q60.79 12.89 61.12 12.31L61.12 12.31L61.12 12.31Q61.46 11.73 62.79 8.83L62.79 8.83L62.79 8.83Q64.16 5.87 65.21 3.63L65.21 3.63L65.21 3.63Q65.31 3.42 65.39 3.36L65.39 3.36L65.39 3.36Q65.46 3.30 65.63 3.30L65.63 3.30L65.63 3.30Q65.76 3.30 65.80 3.36L65.80 3.36L65.80 3.36Q65.84 3.42 65.98 3.82L65.98 3.82L65.98 3.82Q66.07 4.06 66.13 4.23L66.13 4.23L66.13 4.23Q66.19 4.40 66.33 4.77L66.33 4.77L66.33 4.77Q66.47 5.15 66.64 5.56L66.64 5.56L66.64 5.56Q67.09 6.66 68.19 9.22L68.19 9.22L68.19 9.22Q69.29 11.77 69.38 11.98L69.38 11.98L69.38 11.98Q69.62 12.46 69.92 12.71L69.92 12.71L69.92 12.71Q70.21 12.95 70.43 12.97L70.43 12.97L70.43 12.97Q70.64 12.99 70.79 13.04L70.79 13.04L70.79 13.04Q70.94 13.09 70.94 13.26L70.94 13.26L70.94 13.26Q70.94 13.47 70.56 13.47L70.56 13.47L70.56 13.47Q70.41 13.47 69.96 13.43L69.96 13.43L69.96 13.43Q69.51 13.38 69.30 13.38L69.30 13.38L69.30 13.38Q69.03 13.38 68.61 13.41L68.61 13.41L68.61 13.41Q68.19 13.44 68.00 13.44L68.00 13.44L68.00 13.44Q67.56 13.44 67.45 13.40L67.45 13.40L67.45 13.40Q67.33 13.37 67.33 13.24L67.33 13.24L67.33 13.24Q67.33 13.15 67.44 13.08L67.44 13.08L67.44 13.08Q67.55 13.02 67.68 13.00L67.68 13.00L67.68 13.00Q67.80 12.98 67.91 12.87L67.91 12.87L67.91 12.87Q68.03 12.77 68.03 12.59L68.03 12.59L68.03 12.59Q68.03 12.28 67.68 11.33L67.68 11.33L67.68 11.33Q67.33 10.37 67.09 9.93L67.09 9.93L67.09 9.93Q66.96 9.69 66.51 9.69L66.51 9.69L66.51 9.69Q66.44 9.69 65.90 9.70L65.90 9.70L65.90 9.70Q65.35 9.72 64.82 9.72L64.82 9.72L64.08 9.72L64.08 9.72Q63.45 9.72 63.29 9.79L63.29 9.79L63.29 9.79Q63.13 9.86 63 10.12L63 10.12L63 10.12Q62.92 10.30 62.72 10.70L62.72 10.70L62.72 10.70Q62.52 11.10 62.45 11.26L62.45 11.26L62.45 11.26Q62.38 11.41 62.28 11.65L62.28 11.65L62.28 11.65Q62.17 11.90 62.14 12.05L62.14 12.05L62.14 12.05Q62.10 12.19 62.10 12.31L62.10 12.31L62.10 12.31Q62.10 12.63 62.27 12.80L62.27 12.80L62.27 12.80Q62.43 12.96 62.62 12.98L62.62 12.98L62.62 12.98Q62.82 13.01 62.98 13.06L62.98 13.06L62.98 13.06Q63.14 13.12 63.14 13.26L63.14 13.26L63.14 13.26Q63.14 13.36 63.10 13.40L63.10 13.40L63.10 13.40Q63.06 13.45 62.90 13.45L62.90 13.45L62.90 13.45Q62.82 13.45 62.42 13.45L62.42 13.45L62.42 13.45Q62.02 13.44 61.74 13.44L61.74 13.44L61.74 13.44Q61.43 13.44 61.05 13.47L61.05 13.47L61.05 13.47Q60.66 13.50 60.54 13.50L60.54 13.50L60.54 13.50Q60.13 13.50 60.13 13.33ZM63.64 8.71L63.64 8.71L63.64 8.71Q63.64 8.89 63.77 8.93L63.77 8.93L63.77 8.93Q63.90 8.97 64.36 8.97L64.36 8.97L64.79 8.97L66.12 8.96L66.12 8.96Q66.67 8.96 66.67 8.74L66.67 8.74L66.67 8.74Q66.67 8.55 65.98 7.01L65.98 7.01L65.98 7.01Q65.30 5.46 65.11 5.46L65.11 5.46L65.11 5.46Q64.99 5.46 64.32 7.01L64.32 7.01L64.32 7.01Q63.64 8.55 63.64 8.71ZM77.27 5.32L77.27 5.32L77.27 5.32Q77.27 4.76 77.41 3.88L77.41 3.88L77.41 3.88Q77.41 3.85 77.41 3.78L77.41 3.78L77.41 3.78Q77.42 3.71 77.43 3.69L77.43 3.69L77.43 3.69Q77.43 3.67 77.44 3.62L77.44 3.62L77.44 3.62Q77.45 3.57 77.46 3.55L77.46 3.55L77.46 3.55Q77.48 3.53 77.50 3.49L77.50 3.49L77.50 3.49Q77.52 3.46 77.55 3.44L77.55 3.44L77.55 3.44Q77.57 3.43 77.62 3.42L77.62 3.42L77.62 3.42Q77.66 3.40 77.71 3.39L77.71 3.39L77.71 3.39Q77.77 3.39 77.84 3.39L77.84 3.39L77.84 3.39Q78.06 3.39 79.02 3.44L79.02 3.44L79.02 3.44Q79.98 3.50 81.79 3.50L81.79 3.50L81.79 3.50Q84.87 3.50 86.10 3.43L86.10 3.43L86.10 3.43Q86.11 3.43 86.15 3.42L86.15 3.42L86.15 3.42Q86.18 3.42 86.20 3.42L86.20 3.42L86.20 3.42Q86.35 3.42 86.41 3.50L86.41 3.50L86.41 3.50Q86.46 3.58 86.46 3.65L86.46 3.65L86.46 3.65Q86.46 3.75 86.51 4.24L86.51 4.24L86.51 4.24Q86.55 4.73 86.55 4.79L86.55 4.79L86.55 4.79Q86.55 5.14 86.51 5.23L86.51 5.23L86.51 5.23Q86.46 5.32 86.32 5.32L86.32 5.32L86.32 5.32Q86.21 5.32 86.17 5.15L86.17 5.15L86.17 5.15Q86.06 4.75 85.97 4.60L85.97 4.60L85.97 4.60Q85.89 4.45 85.61 4.34L85.61 4.34L85.61 4.34Q85.33 4.23 84.76 4.23L84.76 4.23L82.94 4.23L82.94 4.23Q82.60 4.23 82.52 4.36L82.52 4.36L82.52 4.36Q82.45 4.49 82.45 5.12L82.45 5.12L82.45 5.81L82.45 5.81Q82.45 7.69 82.43 9.11L82.43 9.11L82.43 9.11Q82.40 10.54 82.40 10.93L82.40 10.93L82.40 10.93Q82.40 11.13 82.40 11.43L82.40 11.43L82.40 11.43Q82.39 11.73 82.39 11.84L82.39 11.84L82.39 11.84Q82.39 12.45 82.59 12.64L82.59 12.64L82.59 12.64Q82.77 12.81 82.99 12.90L82.99 12.90L82.99 12.90Q83.22 12.99 83.38 13.01L83.38 13.01L83.38 13.01Q83.54 13.02 83.65 13.08L83.65 13.08L83.65 13.08Q83.76 13.13 83.76 13.26L83.76 13.26L83.76 13.26Q83.76 13.41 83.69 13.45L83.69 13.45L83.69 13.45Q83.62 13.50 83.43 13.50L83.43 13.50L83.43 13.50Q83.26 13.50 82.68 13.44L82.68 13.44L82.68 13.44Q82.11 13.38 81.87 13.38L81.87 13.38L81.87 13.38Q81.70 13.38 81.19 13.43L81.19 13.43L81.19 13.43Q80.68 13.48 80.44 13.48L80.44 13.48L80.44 13.48Q79.93 13.48 79.93 13.26L79.93 13.26L79.93 13.26Q79.93 13.12 80.01 13.07L80.01 13.07L80.01 13.07Q80.09 13.02 80.34 12.98L80.34 12.98L80.34 12.98Q80.58 12.95 80.65 12.94L80.65 12.94L80.65 12.94Q81.13 12.82 81.19 12.38L81.19 12.38L81.19 12.38Q81.33 11.14 81.33 7.08L81.33 7.08L81.31 4.58L81.31 4.58Q81.31 4.31 81.16 4.25L81.16 4.25L81.16 4.25Q81.00 4.19 80.25 4.19L80.25 4.19L80.25 4.19Q79.27 4.19 78.77 4.24L78.77 4.24L78.77 4.24Q78.27 4.30 78.19 4.35L78.19 4.35L78.19 4.35Q78.11 4.40 77.99 4.54L77.99 4.54L77.99 4.54Q77.87 4.70 77.79 4.91L77.79 4.91L77.79 4.91Q77.71 5.11 77.69 5.24L77.69 5.24L77.69 5.24Q77.67 5.38 77.61 5.47L77.61 5.47L77.61 5.47Q77.55 5.56 77.42 5.56L77.42 5.56L77.42 5.56Q77.27 5.56 77.27 5.32ZM94.11 3.65L94.11 3.65L94.11 3.65Q94.11 3.46 94.50 3.46L94.50 3.46L94.50 3.46Q94.56 3.46 94.68 3.47L94.68 3.47L94.68 3.47Q94.81 3.49 94.88 3.49L94.88 3.49L94.88 3.49Q94.92 3.49 96.19 3.52L96.19 3.52L96.19 3.52Q97.47 3.56 98.29 3.56L98.29 3.56L98.29 3.56Q98.59 3.56 99.74 3.53L99.74 3.53L99.74 3.53Q100.90 3.50 101.09 3.50L101.09 3.50L101.09 3.50Q101.36 3.50 101.36 3.82L101.36 3.82L101.36 3.82Q101.36 3.91 101.28 4.38L101.28 4.38L101.28 4.38Q101.19 4.84 101.19 5.25L101.19 5.25L101.19 5.25Q101.19 5.38 101.12 5.47L101.12 5.47L101.12 5.47Q101.05 5.56 100.97 5.56L100.97 5.56L100.97 5.56Q100.76 5.56 100.76 5.26L100.76 5.26L100.76 5.26Q100.76 4.89 100.52 4.58L100.52 4.58L100.52 4.58Q100.28 4.27 99.93 4.26L99.93 4.26L99.93 4.26Q98.67 4.16 98 4.16L98 4.16L97.64 4.16L97.64 4.16Q96.91 4.16 96.79 4.26L96.79 4.26L96.79 4.26Q96.67 4.37 96.64 5.01L96.64 5.01L96.64 5.01Q96.59 6.02 96.59 7.35L96.59 7.35L96.59 7.35Q96.59 8.05 96.85 8.06L96.85 8.06L97.20 8.06L97.79 8.06L98.22 8.06L98.22 8.06Q99.06 8.06 99.34 8.01L99.34 8.01L99.34 8.01Q99.62 7.95 99.85 7.80L99.85 7.80L99.85 7.80Q100.11 7.62 100.17 7.28L100.17 7.28L100.17 7.28Q100.21 7.04 100.37 7.04L100.37 7.04L100.37 7.04Q100.49 7.04 100.52 7.08L100.52 7.08L100.52 7.08Q100.55 7.13 100.55 7.27L100.55 7.27L100.55 7.27Q100.55 7.36 100.49 7.91L100.49 7.91L100.49 7.91Q100.44 8.46 100.44 8.74L100.44 8.74L100.44 8.74Q100.44 9.00 100.46 9.24L100.46 9.24L100.46 9.24Q100.48 9.48 100.48 9.59L100.48 9.59L100.48 9.59Q100.48 9.94 100.38 9.94L100.38 9.94L100.38 9.94Q100.17 9.94 100.07 9.60L100.07 9.60L100.07 9.60Q99.88 9.02 99.72 8.92L99.72 8.92L99.72 8.92Q99.43 8.72 98.38 8.72L98.38 8.72L98.38 8.72Q97.96 8.72 97.70 8.72L97.70 8.72L97.70 8.72Q97.44 8.72 97.36 8.71L97.36 8.71L97.36 8.71Q97.29 8.71 97.24 8.71L97.24 8.71L97.24 8.71Q97.19 8.71 97.15 8.71L97.15 8.71L97.15 8.71Q96.57 8.71 96.57 8.97L96.57 8.97L96.57 8.97Q96.57 9.38 96.56 9.99L96.56 9.99L96.56 9.99Q96.54 10.60 96.54 10.99L96.54 10.99L96.54 11.55L96.54 11.55Q96.54 12.56 96.88 12.66L96.88 12.66L96.88 12.66Q97.23 12.77 97.48 12.77L97.48 12.77L97.48 12.77Q98.53 12.77 99.32 12.67L99.32 12.67L99.32 12.67Q100.11 12.57 100.51 12.42L100.51 12.42L100.51 12.42Q100.91 12.28 101.18 12.10L101.18 12.10L101.18 12.10Q101.44 11.93 101.52 11.78L101.52 11.78L101.52 11.78Q101.60 11.63 101.67 11.54L101.67 11.54L101.67 11.54Q101.75 11.44 101.84 11.44L101.84 11.44L101.84 11.44Q102.00 11.44 102.00 11.68L102.00 11.68L102.00 11.68Q102.00 12.28 101.40 12.89L101.40 12.89L101.40 12.89Q100.80 13.51 100.35 13.51L100.35 13.51L100.35 13.51Q99.34 13.51 98.08 13.44L98.08 13.44L98.08 13.44Q96.81 13.37 96.50 13.37L96.50 13.37L96.50 13.37Q96.11 13.37 95.52 13.43L95.52 13.43L95.52 13.43Q94.93 13.50 94.60 13.50L94.60 13.50L94.60 13.50Q94.30 13.50 94.30 13.36L94.30 13.36L94.30 13.36Q94.30 13.23 94.30 13.19L94.30 13.19L94.30 13.19Q94.30 13.15 94.35 13.12L94.35 13.12L94.35 13.12Q94.39 13.09 94.44 13.08L94.44 13.08L94.44 13.08Q94.49 13.08 94.62 13.03L94.62 13.03L94.62 13.03Q94.75 12.99 94.91 12.92L94.91 12.92L94.91 12.92Q95.24 12.75 95.35 12.26L95.35 12.26L95.35 12.26Q95.45 11.77 95.45 10.21L95.45 10.21L95.45 8.47L95.45 8.47Q95.45 8.09 95.47 7.29L95.47 7.29L95.47 7.29Q95.49 6.50 95.49 6.05L95.49 6.05L95.49 6.05Q95.49 5.67 95.47 4.77L95.47 4.77L95.47 4.77Q95.45 4.37 95.12 4.14L95.12 4.14L95.12 4.14Q94.78 3.92 94.33 3.91L94.33 3.91L94.33 3.91Q94.11 3.91 94.11 3.65ZM119.55 3.70L119.55 3.70L119.55 3.70Q119.55 3.50 119.94 3.50L119.94 3.50L119.94 3.50Q120.01 3.50 120.48 3.53L120.48 3.53L120.48 3.53Q120.95 3.56 121.48 3.56L121.48 3.56L121.48 3.56Q121.60 3.56 121.92 3.54L121.92 3.54L121.92 3.54Q122.23 3.53 122.39 3.53L122.39 3.53L122.39 3.53Q122.71 3.53 122.78 3.56L122.78 3.56L122.78 3.56Q122.85 3.58 122.85 3.68L122.85 3.68L122.85 3.68Q122.85 3.77 122.71 3.84L122.71 3.84L122.71 3.84Q122.57 3.91 122.42 4.02L122.42 4.02L122.42 4.02Q122.28 4.14 122.28 4.34L122.28 4.34L122.28 4.34Q122.28 4.52 122.33 4.71L122.33 4.71L122.33 4.71Q122.37 4.90 122.54 5.29L122.54 5.29L122.54 5.29Q122.71 5.68 122.89 6.08L122.89 6.08L122.89 6.08Q123.06 6.47 123.46 7.34L123.46 7.34L123.46 7.34Q123.86 8.22 124.24 9.07L124.24 9.07L124.24 9.07Q125.41 11.77 125.64 11.77L125.64 11.77L125.64 11.77Q125.71 11.77 126.44 10.08L126.44 10.08L126.44 10.08Q127.18 8.39 127.89 6.54L127.89 6.54L127.89 6.54Q128.60 4.69 128.60 4.35L128.60 4.35L128.60 4.35Q128.60 4.13 128.44 4.01L128.44 4.01L128.44 4.01Q128.28 3.89 128.10 3.87L128.10 3.87L128.10 3.87Q127.92 3.85 127.76 3.80L127.76 3.80L127.76 3.80Q127.60 3.75 127.60 3.64L127.60 3.64L127.60 3.64Q127.60 3.54 127.65 3.52L127.65 3.52L127.65 3.52Q127.69 3.50 127.89 3.50L127.89 3.50L127.89 3.50Q127.93 3.50 128.21 3.51L128.21 3.51L128.21 3.51Q128.49 3.51 128.77 3.51L128.77 3.51L128.77 3.51Q129.02 3.51 129.34 3.50L129.34 3.50L129.34 3.50Q129.65 3.49 130.02 3.49L130.02 3.49L130.02 3.49Q130.28 3.49 130.28 3.68L130.28 3.68L130.28 3.68Q130.28 3.78 130.19 3.85L130.19 3.85L130.19 3.85Q130.10 3.92 129.98 3.98L129.98 3.98L129.98 3.98Q129.85 4.03 129.68 4.21L129.68 4.21L129.68 4.21Q129.51 4.40 129.39 4.69L129.39 4.69L126.27 11.80L126.27 11.80Q125.93 12.56 125.61 13.34L125.61 13.34L125.61 13.34Q125.45 13.72 125.41 13.79L125.41 13.79L125.41 13.79Q125.37 13.86 125.30 13.86L125.30 13.86L125.30 13.86Q125.05 13.86 124.67 12.89L124.67 12.89L124.67 12.89Q124.31 11.98 123.23 9.65L123.23 9.65L123.23 9.65Q122.70 8.48 122.26 7.50L122.26 7.50L122.26 7.50Q121.83 6.52 121.64 6.06L121.64 6.06L121.64 6.06Q121.45 5.60 121.29 5.24L121.29 5.24L121.29 5.24Q121.13 4.87 121.04 4.72L121.04 4.72L121.04 4.72Q120.96 4.56 120.85 4.44L120.85 4.44L120.85 4.44Q120.61 4.17 120.35 4.06L120.35 4.06L120.35 4.06Q120.09 3.95 119.93 3.96L119.93 3.96L119.93 3.96Q119.77 3.96 119.66 3.91L119.66 3.91L119.66 3.91Q119.55 3.86 119.55 3.70ZM137.84 3.72L137.84 3.72L137.84 3.72Q137.84 3.50 138.17 3.50L138.17 3.50L138.17 3.50Q138.21 3.50 138.32 3.49L138.32 3.49L138.32 3.49Q138.43 3.49 138.68 3.49L138.68 3.49L138.68 3.49Q138.75 3.49 139.07 3.51L139.07 3.51L139.07 3.51Q139.38 3.53 139.52 3.53L139.52 3.53L139.52 3.53Q139.83 3.53 140.71 3.51L140.71 3.51L140.71 3.51Q141.60 3.49 141.83 3.49L141.83 3.49L141.83 3.49Q143.15 3.49 144.10 4.15L144.10 4.15L144.10 4.15Q145.05 4.82 145.05 6.06L145.05 6.06L145.05 6.06Q145.05 6.75 144.80 7.29L144.80 7.29L144.80 7.29Q144.55 7.83 144.19 8.13L144.19 8.13L144.19 8.13Q143.84 8.44 143.39 8.64L143.39 8.64L143.39 8.64Q142.95 8.85 142.61 8.91L142.61 8.91L142.61 8.91Q142.27 8.97 142.00 8.97L142.00 8.97L142.00 8.97Q141.55 8.97 141.09 8.87L141.09 8.87L141.09 8.87Q140.63 8.76 140.63 8.65L140.63 8.65L140.63 8.65Q140.63 8.44 140.81 8.44L140.81 8.44L140.81 8.44Q140.88 8.44 141.10 8.50L141.10 8.50L141.10 8.50Q141.32 8.55 141.53 8.55L141.53 8.55L141.53 8.55Q141.85 8.55 142.21 8.46L142.21 8.46L142.21 8.46Q142.58 8.37 142.97 8.17L142.97 8.17L142.97 8.17Q143.36 7.97 143.61 7.55L143.61 7.55L143.61 7.55Q143.86 7.14 143.86 6.59L143.86 6.59L143.86 6.59Q143.86 5.66 143.11 4.85L143.11 4.85L143.11 4.85Q142.35 4.05 141.02 4.05L141.02 4.05L141.02 4.05Q140.59 4.05 140.43 4.30L140.43 4.30L140.43 4.30Q140.28 4.56 140.28 5.47L140.28 5.47L140.28 5.47Q140.28 8.39 140.27 8.80L140.27 8.80L140.27 8.80Q140.25 9.21 140.25 11.26L140.25 11.26L140.25 11.26Q140.25 12.49 140.83 12.87L140.83 12.87L140.83 12.87Q140.98 12.96 141.21 12.99L141.21 12.99L141.21 12.99Q141.44 13.02 141.60 13.01L141.60 13.01L141.60 13.01Q141.75 13.01 141.87 13.07L141.87 13.07L141.87 13.07Q141.99 13.13 141.99 13.30L141.99 13.30L141.99 13.30Q141.99 13.54 141.67 13.54L141.67 13.54L141.67 13.54Q141.34 13.54 140.53 13.50L140.53 13.50L140.53 13.50Q139.72 13.47 139.66 13.47L139.66 13.47L139.66 13.47Q139.52 13.47 139.11 13.50L139.11 13.50L139.11 13.50Q138.70 13.52 138.36 13.52L138.36 13.52L138.36 13.52Q137.93 13.52 137.93 13.37L137.93 13.37L137.93 13.37Q137.93 13.29 137.95 13.23L137.95 13.23L137.95 13.23Q137.97 13.17 137.99 13.14L137.99 13.14L137.99 13.14Q138.01 13.10 138.08 13.08L138.08 13.08L138.08 13.08Q138.15 13.05 138.18 13.03L138.18 13.03L138.18 13.03Q138.21 13.02 138.31 13.00L138.31 13.00L138.31 13.00Q138.42 12.98 138.46 12.96L138.46 12.96L138.46 12.96Q138.49 12.95 138.54 12.94L138.54 12.94L138.54 12.94Q138.60 12.94 138.62 12.93L138.62 12.93L138.62 12.93Q138.64 12.92 138.69 12.89L138.69 12.89L138.69 12.89Q138.74 12.85 138.77 12.79L138.77 12.79L138.77 12.79Q138.80 12.73 138.84 12.62L138.84 12.62L138.84 12.62Q138.89 12.52 138.95 12.35L138.95 12.35L138.95 12.35Q139.05 12.08 139.10 10.25L139.10 10.25L139.10 10.25Q139.16 8.41 139.16 7.41L139.16 7.41L139.16 7.41Q139.16 6.54 139.15 5.80L139.15 5.80L139.15 5.80Q139.15 5.07 139.15 5.03L139.15 5.03L139.15 5.03Q139.15 4.65 138.91 4.28L138.91 4.28L138.91 4.28Q138.67 3.91 138.12 3.91L138.12 3.91L138.12 3.91Q137.84 3.91 137.84 3.72ZM152.53 3.77L152.53 3.77L152.53 3.77Q152.53 3.68 152.63 3.60L152.63 3.60L152.63 3.60Q152.73 3.53 152.88 3.53L152.88 3.53L152.88 3.53Q152.96 3.53 153.16 3.54L153.16 3.54L153.16 3.54Q153.36 3.54 153.41 3.54L153.41 3.54L153.41 3.54Q153.62 3.54 153.80 3.53L153.80 3.53L153.80 3.53Q153.99 3.51 154.10 3.51L154.10 3.51L154.10 3.51Q154.22 3.51 154.39 3.59L154.39 3.59L154.39 3.59Q154.56 3.67 154.59 3.75L154.59 3.75L154.59 3.75Q154.62 3.79 154.74 3.94L154.74 3.94L154.74 3.94Q154.87 4.09 155.08 4.33L155.08 4.33L155.08 4.33Q155.29 4.56 155.46 4.79L155.46 4.79L155.46 4.79Q157.36 7.27 160.55 10.77L160.55 10.77L160.55 10.77Q160.64 10.86 160.75 10.99L160.75 10.99L160.75 10.99Q160.87 11.12 160.92 11.18L160.92 11.18L160.92 11.18Q160.97 11.24 161.03 11.30L161.03 11.30L161.03 11.30Q161.08 11.35 161.12 11.38L161.12 11.38L161.12 11.38Q161.15 11.40 161.18 11.40L161.18 11.40L161.18 11.40Q161.32 11.40 161.32 10.53L161.32 10.53L161.32 8.89L161.32 8.89Q161.32 7.95 161.31 7.31L161.31 7.31L161.31 7.31Q161.31 6.66 161.30 6.38L161.30 6.38L161.30 6.38Q161.29 6.09 161.29 6.02L161.29 6.02L161.29 5.92L161.29 5.92Q161.29 5.45 161.23 5.11L161.23 5.11L161.23 5.11Q161.17 4.77 161.08 4.59L161.08 4.59L161.08 4.59Q161.00 4.41 160.84 4.28L160.84 4.28L160.84 4.28Q160.68 4.16 160.57 4.12L160.57 4.12L160.57 4.12Q160.45 4.09 160.24 4.05L160.24 4.05L160.24 4.05Q160.03 4.00 159.95 3.98L159.95 3.98L159.95 3.98Q159.67 3.89 159.67 3.74L159.67 3.74L159.67 3.74Q159.67 3.53 159.94 3.53L159.94 3.53L159.94 3.53Q160.02 3.53 160.61 3.54L160.61 3.54L160.61 3.54Q161.20 3.54 161.27 3.54L161.27 3.54L161.27 3.54Q161.60 3.54 162.01 3.53L162.01 3.53L162.01 3.53Q162.43 3.51 162.53 3.51L162.53 3.51L162.53 3.51Q162.76 3.51 162.85 3.56L162.85 3.56L162.85 3.56Q162.95 3.61 162.95 3.75L162.95 3.75L162.95 3.75Q162.95 3.81 162.87 3.86L162.87 3.86L162.87 3.86Q162.79 3.91 162.71 3.94L162.71 3.94L162.71 3.94Q162.62 3.98 162.54 4.00L162.54 4.00L162.46 4.03L162.46 4.03Q161.99 4.28 161.99 5.61L161.99 5.61L161.99 6.15L161.99 6.15Q161.99 7.21 161.92 9.83L161.92 9.83L161.92 9.83Q161.84 12.46 161.84 13.08L161.84 13.08L161.84 13.36L161.84 13.36Q161.84 13.68 161.64 13.68L161.64 13.68L161.64 13.68Q161.52 13.68 161.42 13.58L161.42 13.58L161.42 13.58Q156.77 8.19 155.87 7.17L155.87 7.17L155.87 7.17Q154.97 6.16 154.87 6.16L154.87 6.16L154.87 6.16Q154.73 6.16 154.73 7.11L154.73 7.11L154.73 7.11Q154.73 8.44 154.67 9.97L154.67 9.97L154.67 9.97Q154.62 11.51 154.62 11.65L154.62 11.65L154.62 11.65Q154.62 12.28 154.83 12.61L154.83 12.61L154.83 12.61Q155.05 12.94 155.30 12.98L155.30 12.98L155.30 12.98Q155.55 13.02 155.77 13.07L155.77 13.07L155.77 13.07Q155.99 13.12 155.99 13.26L155.99 13.26L155.99 13.26Q155.99 13.41 155.94 13.45L155.94 13.45L155.94 13.45Q155.89 13.50 155.76 13.50L155.76 13.50L155.76 13.50Q155.67 13.50 155.32 13.48L155.32 13.48L155.32 13.48Q154.98 13.47 154.27 13.47L154.27 13.47L154.27 13.47Q154.14 13.47 153.75 13.48L153.75 13.48L153.75 13.48Q153.36 13.50 153.08 13.50L153.08 13.50L153.08 13.50Q152.77 13.50 152.77 13.27L152.77 13.27L152.77 13.27Q152.77 13.15 152.95 13.11L152.95 13.11L152.95 13.11Q153.13 13.08 153.40 12.89L153.40 12.89L153.40 12.89Q153.66 12.71 153.80 12.21L153.80 12.21L153.80 12.21Q153.89 11.89 154.01 9.60L154.01 9.60L154.01 9.60Q154.14 7.32 154.14 6.45L154.14 6.45L154.14 6.45Q154.14 5.25 153.80 4.65L153.80 4.65L153.80 4.65Q153.47 4.06 152.71 3.98L152.71 3.98L152.71 3.98Q152.53 3.96 152.53 3.77ZM181.23 10.82L181.23 10.82L181.23 10.82Q181.23 10.53 181.43 10.53L181.43 10.53L181.43 10.53Q181.61 10.53 181.65 10.67L181.65 10.67L181.65 10.67Q181.79 11.00 181.91 11.25L181.91 11.25L181.91 11.25Q182.03 11.49 182.29 11.85L182.29 11.85L182.29 11.85Q182.56 12.21 182.87 12.44L182.87 12.44L182.87 12.44Q183.18 12.67 183.66 12.84L183.66 12.84L183.66 12.84Q184.14 13.01 184.72 13.01L184.72 13.01L184.72 13.01Q185.77 13.01 186.40 12.45L186.40 12.45L186.40 12.45Q187.04 11.90 187.04 11.00L187.04 11.00L187.04 11.00Q187.04 10.35 186.61 9.90L186.61 9.90L186.61 9.90Q186.17 9.46 185.61 9.27L185.61 9.27L185.61 9.27Q185.05 9.09 184.19 8.77L184.19 8.77L184.19 8.77Q183.33 8.46 182.78 8.13L182.78 8.13L182.78 8.13Q181.51 7.38 181.51 6.08L181.51 6.08L181.51 6.08Q181.51 4.83 182.41 4.08L182.41 4.08L182.41 4.08Q183.32 3.33 184.76 3.33L184.76 3.33L184.76 3.33Q185.29 3.33 186.02 3.56L186.02 3.56L186.02 3.56Q186.76 3.79 186.77 3.79L186.77 3.79L186.77 3.79Q186.82 3.79 186.93 3.74L186.93 3.74L186.93 3.74Q187.04 3.68 187.10 3.68L187.10 3.68L187.10 3.68Q187.28 3.68 187.31 3.79L187.31 3.79L187.31 3.79Q187.60 5.49 187.60 5.70L187.60 5.70L187.60 5.70Q187.60 6.09 187.40 6.09L187.40 6.09L187.40 6.09Q187.28 6.09 187.21 5.89L187.21 5.89L187.21 5.89Q187.04 5.49 186.88 5.24L186.88 5.24L186.88 5.24Q186.72 4.98 186.65 4.91L186.65 4.91L186.65 4.91Q186.58 4.84 186.28 4.58L186.28 4.58L186.28 4.58Q185.53 3.91 184.45 3.91L184.45 3.91L184.45 3.91Q183.58 3.91 182.99 4.33L182.99 4.33L182.99 4.33Q182.41 4.75 182.41 5.46L182.41 5.46L182.41 5.46Q182.41 6.09 182.75 6.50L182.75 6.50L182.75 6.50Q183.09 6.90 183.67 7.13L183.67 7.13L183.67 7.13Q184.24 7.35 184.87 7.55L184.87 7.55L184.87 7.55Q185.50 7.74 186.21 8.09L186.21 8.09L186.21 8.09Q186.91 8.44 187.38 8.93L187.38 8.93L187.38 8.93Q187.94 9.53 187.94 10.43L187.94 10.43L187.94 10.43Q187.94 11.90 187.00 12.76L187.00 12.76L187.00 12.76Q186.06 13.62 184.67 13.62L184.67 13.62L184.67 13.62Q183.71 13.62 183.12 13.52L183.12 13.52L183.12 13.52Q182.53 13.41 181.92 13.09L181.92 13.09L181.92 13.09Q181.73 12.98 181.48 12.00L181.48 12.00L181.48 12.00Q181.23 11.02 181.23 10.82ZM196.03 3.71L196.03 3.71L196.03 3.71Q196.03 3.50 196.42 3.50L196.42 3.50L196.42 3.50Q196.56 3.50 197.06 3.53L197.06 3.53L197.06 3.53Q197.57 3.56 198.00 3.56L198.00 3.56L198.00 3.56Q198.27 3.56 198.51 3.54L198.51 3.54L198.51 3.54Q198.76 3.53 199.23 3.53L199.23 3.53L199.23 3.53Q199.61 3.53 199.61 3.72L199.61 3.72L199.61 3.72Q199.61 3.84 198.97 4.10L198.97 4.10L198.97 4.10Q198.52 4.28 198.52 5.71L198.52 5.71L198.52 5.71Q198.52 7.60 198.50 9.05L198.50 9.05L198.50 9.05Q198.48 10.50 198.48 10.89L198.48 10.89L198.48 10.89Q198.48 12.07 198.83 12.59L198.83 12.59L198.83 12.59Q199.14 13.02 199.50 13.02L199.50 13.02L199.50 13.02Q199.53 13.02 199.64 13.03L199.64 13.03L199.64 13.03Q199.75 13.03 199.78 13.03L199.78 13.03L199.78 13.03Q199.88 13.03 199.98 13.08L199.98 13.08L199.98 13.08Q200.07 13.13 200.07 13.19L200.07 13.19L200.07 13.19Q200.07 13.34 200.00 13.39L200.00 13.39L200.00 13.39Q199.92 13.44 199.72 13.44L199.72 13.44L199.72 13.44Q199.30 13.44 198.95 13.41L198.95 13.41L198.95 13.41Q198.59 13.38 198.39 13.38L198.39 13.38L198.39 13.38Q198.00 13.38 197.54 13.42L197.54 13.42L197.54 13.42Q197.08 13.45 196.85 13.45L196.85 13.45L196.85 13.45Q196.22 13.45 196.22 13.24L196.22 13.24L196.22 13.24Q196.22 13.12 196.36 13.07L196.36 13.07L196.36 13.07Q196.49 13.02 196.66 13.00L196.66 13.00L196.66 13.00Q196.83 12.98 197.01 12.82L197.01 12.82L197.01 12.82Q197.19 12.66 197.26 12.35L197.26 12.35L197.26 12.35Q197.29 12.25 197.35 10.76L197.35 10.76L197.35 10.76Q197.41 9.27 197.41 8.61L197.41 8.61L197.41 7.81L197.41 7.81Q197.41 7.63 197.42 7.12L197.42 7.12L197.42 7.12Q197.43 6.61 197.43 6.30L197.43 6.30L197.43 5.66L197.43 5.66Q197.43 5.04 197.37 4.63L197.37 4.63L197.37 4.63Q197.33 4.30 197.00 4.12L197.00 4.12L197.00 4.12Q196.67 3.93 196.32 3.92L196.32 3.92L196.32 3.92Q196.03 3.91 196.03 3.71ZM207.62 3.71L207.62 3.71L207.62 3.71Q207.62 3.50 207.87 3.50L207.87 3.50L207.87 3.50Q207.96 3.50 208.26 3.53L208.26 3.53L208.26 3.53Q208.56 3.56 208.61 3.56L208.61 3.56L208.61 3.56Q208.82 3.56 209.19 3.54L209.19 3.54L209.19 3.54Q209.55 3.53 209.66 3.53L209.66 3.53L209.66 3.53Q209.93 3.53 210.00 3.72L210.00 3.72L210.00 3.72Q210.17 4.09 210.60 5.03L210.60 5.03L210.60 5.03Q211.04 5.98 211.29 6.54L211.29 6.54L211.29 6.54Q211.55 7.10 211.96 7.97L211.96 7.97L211.96 7.97Q212.37 8.83 212.62 9.37L212.62 9.37L212.62 9.37Q212.87 9.91 213.14 10.46L213.14 10.46L213.14 10.46Q213.42 11.00 213.56 11.26L213.56 11.26L213.56 11.26Q213.71 11.52 213.75 11.52L213.75 11.52L213.75 11.52Q213.79 11.52 213.84 11.47L213.84 11.47L213.84 11.47Q213.89 11.42 213.94 11.34L213.94 11.34L213.94 11.34Q213.99 11.26 214.02 11.17L214.02 11.17L214.02 11.17Q214.06 11.09 214.12 10.96L214.12 10.96L214.12 10.96Q214.19 10.82 214.21 10.75L214.21 10.75L216.02 7.03L216.02 7.03Q216.33 6.40 216.57 5.89L216.57 5.89L216.57 5.89Q216.80 5.39 216.94 5.08L216.94 5.08L216.94 5.08Q217.08 4.77 217.18 4.55L217.18 4.55L217.18 4.55Q217.28 4.33 217.33 4.21L217.33 4.21L217.33 4.21Q217.38 4.10 217.40 4.04L217.40 4.04L217.40 4.04Q217.42 3.98 217.43 3.94L217.43 3.94L217.43 3.94Q217.45 3.91 217.46 3.88L217.46 3.88L217.46 3.88Q217.48 3.85 217.51 3.75L217.51 3.75L217.51 3.75Q217.55 3.65 217.58 3.62L217.58 3.62L217.58 3.62Q217.62 3.58 217.72 3.54L217.72 3.54L217.72 3.54Q217.83 3.50 217.99 3.50L217.99 3.50L217.99 3.50Q218.26 3.50 218.49 3.51L218.49 3.51L218.49 3.51Q218.72 3.53 219.20 3.53L219.20 3.53L219.20 3.53Q219.44 3.53 219.44 3.71L219.44 3.71L219.44 3.71Q219.44 3.85 219.34 3.91L219.34 3.91L219.34 3.91Q219.25 3.98 218.97 4.02L218.97 4.02L218.97 4.02Q218.62 4.06 218.48 4.37L218.48 4.37L218.48 4.37Q218.34 4.68 218.34 5.54L218.34 5.54L218.34 5.54Q218.34 7.43 218.43 8.97L218.43 8.97L218.43 8.97Q218.51 10.50 218.51 10.89L218.51 10.89L218.51 10.89Q218.51 12.29 218.74 12.68L218.74 12.68L218.74 12.68Q218.96 13.06 219.67 13.06L219.67 13.06L219.67 13.06Q219.77 13.06 219.85 13.13L219.85 13.13L219.85 13.13Q219.93 13.20 219.93 13.26L219.93 13.26L219.93 13.26Q219.93 13.34 219.91 13.38L219.91 13.38L219.91 13.38Q219.90 13.43 219.86 13.45L219.86 13.45L219.86 13.45Q219.81 13.48 219.77 13.48L219.77 13.48L219.77 13.48Q219.73 13.48 219.62 13.48L219.62 13.48L219.62 13.48Q219.20 13.48 218.79 13.45L218.79 13.45L218.79 13.45Q218.39 13.43 218.19 13.43L218.19 13.43L218.19 13.43Q217.80 13.43 217.38 13.46L217.38 13.46L217.38 13.46Q216.96 13.50 216.73 13.50L216.73 13.50L216.73 13.50Q216.48 13.50 216.48 13.30L216.48 13.30L216.48 13.30Q216.48 13.17 216.59 13.12L216.59 13.12L216.59 13.12Q216.71 13.06 216.85 13.05L216.85 13.05L216.85 13.05Q217.00 13.03 217.16 12.87L217.16 12.87L217.16 12.87Q217.32 12.71 217.39 12.39L217.39 12.39L217.39 12.39Q217.45 12.11 217.45 11.49L217.45 11.49L217.45 11.49Q217.45 11.05 217.43 10.42L217.43 10.42L217.43 10.42Q217.41 9.79 217.38 9.19L217.38 9.19L217.38 9.19Q217.35 8.60 217.32 8.07L217.32 8.07L217.32 8.07Q217.29 7.55 217.28 7.21L217.28 7.21L217.25 6.87L217.25 6.87Q217.25 6.27 217.13 6.27L217.13 6.27L217.13 6.27Q217.11 6.27 217.08 6.29L217.08 6.29L217.08 6.29Q217.06 6.30 217.03 6.33L217.03 6.33L217.03 6.33Q217.01 6.36 216.99 6.38L216.99 6.38L216.99 6.38Q216.96 6.41 216.93 6.47L216.93 6.47L216.93 6.47Q216.90 6.54 216.87 6.58L216.87 6.58L216.87 6.58Q216.85 6.62 216.80 6.70L216.80 6.70L216.80 6.70Q216.76 6.78 216.73 6.83L216.73 6.83L216.73 6.83Q216.71 6.89 216.66 6.99L216.66 6.99L216.66 6.99Q216.61 7.08 216.58 7.15L216.58 7.15L214.63 11.09L214.63 11.09Q214.30 11.77 213.92 12.56L213.92 12.56L213.92 12.56Q213.67 13.09 213.61 13.18L213.61 13.18L213.61 13.18Q213.56 13.27 213.47 13.27L213.47 13.27L213.47 13.27Q213.35 13.27 213.26 13.15L213.26 13.15L213.26 13.15Q213.18 13.03 213.01 12.63L213.01 12.63L213.01 12.63Q212.84 12.22 212.72 11.96L212.72 11.96L212.72 11.96Q210.15 6.75 210.08 6.65L210.08 6.65L210.08 6.65Q210.04 6.59 210.00 6.59L210.00 6.59L210.00 6.59Q209.89 6.59 209.89 7.15L209.89 7.15L209.89 7.15Q209.87 8.25 209.82 9.31L209.82 9.31L209.82 9.31Q209.76 10.37 209.76 10.85L209.76 10.85L209.76 11.48L209.76 11.48Q209.76 11.84 209.78 12.04L209.78 12.04L209.78 12.04Q209.80 12.24 209.89 12.49L209.89 12.49L209.89 12.49Q209.99 12.75 210.22 12.89L210.22 12.89L210.22 12.89Q210.46 13.03 210.84 13.08L210.84 13.08L210.84 13.08Q210.91 13.08 210.97 13.13L210.97 13.13L210.97 13.13Q211.04 13.17 211.04 13.23L211.04 13.23L211.04 13.23Q211.04 13.38 210.99 13.43L210.99 13.43L210.99 13.43Q210.95 13.48 210.83 13.48L210.83 13.48L210.83 13.48Q210.55 13.48 209.99 13.45L209.99 13.45L209.99 13.45Q209.43 13.43 209.37 13.43L209.37 13.43L209.37 13.43Q209.34 13.43 208.96 13.45L208.96 13.45L208.96 13.45Q208.59 13.47 208.22 13.47L208.22 13.47L208.22 13.47Q208.11 13.47 208.06 13.45L208.06 13.45L208.06 13.45Q208.01 13.44 207.97 13.39L207.97 13.39L207.97 13.39Q207.93 13.34 207.93 13.24L207.93 13.24L207.93 13.24Q207.93 13.13 208.05 13.09L208.05 13.09L208.05 13.09Q208.18 13.05 208.34 13.04L208.34 13.04L208.34 13.04Q208.50 13.03 208.70 12.82L208.70 12.82L208.70 12.82Q208.89 12.60 208.99 12.18L208.99 12.18L208.99 12.18Q209.06 11.87 209.16 9.74L209.16 9.74L209.16 9.74Q209.26 7.62 209.26 6.59L209.26 6.59L209.26 6.59Q209.26 5.19 208.98 4.66L208.98 4.66L208.98 4.66Q208.71 4.13 207.80 3.92L207.80 3.92L207.80 3.92Q207.62 3.88 207.62 3.71ZM227.49 3.72L227.49 3.72L227.49 3.72Q227.49 3.50 227.81 3.50L227.81 3.50L227.81 3.50Q227.85 3.50 227.96 3.49L227.96 3.49L227.96 3.49Q228.07 3.49 228.33 3.49L228.33 3.49L228.33 3.49Q228.40 3.49 228.71 3.51L228.71 3.51L228.71 3.51Q229.03 3.53 229.17 3.53L229.17 3.53L229.17 3.53Q229.47 3.53 230.36 3.51L230.36 3.51L230.36 3.51Q231.24 3.49 231.48 3.49L231.48 3.49L231.48 3.49Q232.79 3.49 233.74 4.15L233.74 4.15L233.74 4.15Q234.70 4.82 234.70 6.06L234.70 6.06L234.70 6.06Q234.70 6.75 234.44 7.29L234.44 7.29L234.44 7.29Q234.19 7.83 233.83 8.13L233.83 8.13L233.83 8.13Q233.48 8.44 233.04 8.64L233.04 8.64L233.04 8.64Q232.60 8.85 232.25 8.91L232.25 8.91L232.25 8.91Q231.91 8.97 231.64 8.97L231.64 8.97L231.64 8.97Q231.20 8.97 230.73 8.87L230.73 8.87L230.73 8.87Q230.27 8.76 230.27 8.65L230.27 8.65L230.27 8.65Q230.27 8.44 230.45 8.44L230.45 8.44L230.45 8.44Q230.52 8.44 230.74 8.50L230.74 8.50L230.74 8.50Q230.96 8.55 231.17 8.55L231.17 8.55L231.17 8.55Q231.49 8.55 231.85 8.46L231.85 8.46L231.85 8.46Q232.22 8.37 232.61 8.17L232.61 8.17L232.61 8.17Q233.00 7.97 233.25 7.55L233.25 7.55L233.25 7.55Q233.51 7.14 233.51 6.59L233.51 6.59L233.51 6.59Q233.51 5.66 232.75 4.85L232.75 4.85L232.75 4.85Q231.99 4.05 230.66 4.05L230.66 4.05L230.66 4.05Q230.23 4.05 230.08 4.30L230.08 4.30L230.08 4.30Q229.92 4.56 229.92 5.47L229.92 5.47L229.92 5.47Q229.92 8.39 229.91 8.80L229.91 8.80L229.91 8.80Q229.89 9.21 229.89 11.26L229.89 11.26L229.89 11.26Q229.89 12.49 230.47 12.87L230.47 12.87L230.47 12.87Q230.62 12.96 230.85 12.99L230.85 12.99L230.85 12.99Q231.08 13.02 231.24 13.01L231.24 13.01L231.24 13.01Q231.39 13.01 231.51 13.07L231.51 13.07L231.51 13.07Q231.63 13.13 231.63 13.30L231.63 13.30L231.63 13.30Q231.63 13.54 231.31 13.54L231.31 13.54L231.31 13.54Q230.99 13.54 230.17 13.50L230.17 13.50L230.17 13.50Q229.36 13.47 229.31 13.47L229.31 13.47L229.31 13.47Q229.17 13.47 228.75 13.50L228.75 13.50L228.75 13.50Q228.34 13.52 228.00 13.52L228.00 13.52L228.00 13.52Q227.57 13.52 227.57 13.37L227.57 13.37L227.57 13.37Q227.57 13.29 227.59 13.23L227.59 13.23L227.59 13.23Q227.61 13.17 227.63 13.14L227.63 13.14L227.63 13.14Q227.65 13.10 227.72 13.08L227.72 13.08L227.72 13.08Q227.79 13.05 227.82 13.03L227.82 13.03L227.82 13.03Q227.85 13.02 227.95 13.00L227.95 13.00L227.95 13.00Q228.06 12.98 228.10 12.96L228.10 12.96L228.10 12.96Q228.13 12.95 228.19 12.94L228.19 12.94L228.19 12.94Q228.24 12.94 228.26 12.93L228.26 12.93L228.26 12.93Q228.28 12.92 228.33 12.89L228.33 12.89L228.33 12.89Q228.38 12.85 228.41 12.79L228.41 12.79L228.41 12.79Q228.44 12.73 228.49 12.62L228.49 12.62L228.49 12.62Q228.54 12.52 228.59 12.35L228.59 12.35L228.59 12.35Q228.69 12.08 228.75 10.25L228.75 10.25L228.75 10.25Q228.80 8.41 228.80 7.41L228.80 7.41L228.80 7.41Q228.80 6.54 228.79 5.80L228.79 5.80L228.79 5.80Q228.79 5.07 228.79 5.03L228.79 5.03L228.79 5.03Q228.79 4.65 228.55 4.28L228.55 4.28L228.55 4.28Q228.31 3.91 227.77 3.91L227.77 3.91L227.77 3.91Q227.49 3.91 227.49 3.72ZM242.38 3.71L242.38 3.71L242.38 3.71Q242.38 3.46 242.76 3.46L242.76 3.46L242.76 3.46Q242.82 3.46 242.94 3.47L242.94 3.47L242.94 3.47Q243.07 3.49 243.14 3.49L243.14 3.49L243.14 3.49Q243.28 3.49 243.66 3.51L243.66 3.51L243.66 3.51Q244.05 3.54 244.36 3.54L244.36 3.54L244.36 3.54Q244.79 3.54 245.28 3.51L245.28 3.51L245.28 3.51Q245.77 3.49 245.83 3.49L245.83 3.49L245.83 3.49Q246.06 3.49 246.06 3.63L246.06 3.63L246.06 3.63Q246.06 3.82 245.90 3.88L245.90 3.88L245.90 3.88Q245.73 3.95 245.52 3.97L245.52 3.97L245.52 3.97Q245.32 3.99 245.13 4.28L245.13 4.28L245.13 4.28Q244.94 4.56 244.92 5.14L244.92 5.14L244.92 5.14Q244.89 5.68 244.85 8.19L244.85 8.19L244.85 8.19Q244.80 10.70 244.80 10.99L244.80 10.99L244.80 11.55L244.80 11.55Q244.80 12.56 245.14 12.66L245.14 12.66L245.14 12.66Q245.49 12.77 245.74 12.77L245.74 12.77L245.74 12.77Q246.79 12.77 247.58 12.67L247.58 12.67L247.58 12.67Q248.37 12.57 248.77 12.42L248.77 12.42L248.77 12.42Q249.17 12.28 249.44 12.10L249.44 12.10L249.44 12.10Q249.70 11.93 249.78 11.78L249.78 11.78L249.78 11.78Q249.86 11.63 249.93 11.54L249.93 11.54L249.93 11.54Q250.01 11.44 250.10 11.44L250.10 11.44L250.10 11.44Q250.26 11.44 250.26 11.68L250.26 11.68L250.26 11.68Q250.26 12.28 249.66 12.89L249.66 12.89L249.66 12.89Q249.06 13.51 248.61 13.51L248.61 13.51L248.61 13.51Q247.60 13.51 246.34 13.44L246.34 13.44L246.34 13.44Q245.07 13.37 244.76 13.37L244.76 13.37L244.76 13.37Q244.37 13.37 243.86 13.43L243.86 13.43L243.86 13.43Q243.35 13.48 243.01 13.48L243.01 13.48L243.01 13.48Q242.61 13.48 242.61 13.31L242.61 13.31L242.61 13.31Q242.61 13.22 242.68 13.15L242.68 13.15L242.68 13.15Q242.76 13.09 242.83 13.09L242.83 13.09L242.83 13.09Q243.04 13.09 243.24 12.95L243.24 12.95L243.24 12.95Q243.49 12.75 243.60 12.23L243.60 12.23L243.60 12.23Q243.71 11.70 243.71 10.21L243.71 10.21L243.71 8.47L243.71 8.47Q243.71 8.09 243.73 7.29L243.73 7.29L243.73 7.29Q243.75 6.50 243.75 6.05L243.75 6.05L243.75 6.05Q243.75 5.67 243.73 4.77L243.73 4.77L243.73 4.77Q243.71 4.37 243.38 4.14L243.38 4.14L243.38 4.14Q243.04 3.92 242.59 3.91L242.59 3.91L242.59 3.91Q242.45 3.91 242.42 3.86L242.42 3.86L242.42 3.86Q242.38 3.81 242.38 3.71ZM257.82 3.71L257.82 3.71L257.82 3.71Q257.82 3.50 258.22 3.50L258.22 3.50L258.22 3.50Q258.36 3.50 258.86 3.53L258.86 3.53L258.86 3.53Q259.36 3.56 259.80 3.56L259.80 3.56L259.80 3.56Q260.06 3.56 260.31 3.54L260.31 3.54L260.31 3.54Q260.55 3.53 261.03 3.53L261.03 3.53L261.03 3.53Q261.41 3.53 261.41 3.72L261.41 3.72L261.41 3.72Q261.41 3.84 260.76 4.10L260.76 4.10L260.76 4.10Q260.32 4.28 260.32 5.71L260.32 5.71L260.32 5.71Q260.32 7.60 260.29 9.05L260.29 9.05L260.29 9.05Q260.27 10.50 260.27 10.89L260.27 10.89L260.27 10.89Q260.27 12.07 260.62 12.59L260.62 12.59L260.62 12.59Q260.93 13.02 261.30 13.02L261.30 13.02L261.30 13.02Q261.32 13.02 261.44 13.03L261.44 13.03L261.44 13.03Q261.55 13.03 261.58 13.03L261.58 13.03L261.58 13.03Q261.67 13.03 261.77 13.08L261.77 13.08L261.77 13.08Q261.87 13.13 261.87 13.19L261.87 13.19L261.87 13.19Q261.87 13.34 261.79 13.39L261.79 13.39L261.79 13.39Q261.72 13.44 261.52 13.44L261.52 13.44L261.52 13.44Q261.10 13.44 260.74 13.41L260.74 13.41L260.74 13.41Q260.39 13.38 260.19 13.38L260.19 13.38L260.19 13.38Q259.80 13.38 259.34 13.42L259.34 13.42L259.34 13.42Q258.87 13.45 258.65 13.45L258.65 13.45L258.65 13.45Q258.02 13.45 258.02 13.24L258.02 13.24L258.02 13.24Q258.02 13.12 258.15 13.07L258.15 13.07L258.15 13.07Q258.29 13.02 258.45 13.00L258.45 13.00L258.45 13.00Q258.62 12.98 258.80 12.82L258.80 12.82L258.80 12.82Q258.99 12.66 259.06 12.35L259.06 12.35L259.06 12.35Q259.08 12.25 259.15 10.76L259.15 10.76L259.15 10.76Q259.21 9.27 259.21 8.61L259.21 8.61L259.21 7.81L259.21 7.81Q259.21 7.63 259.22 7.12L259.22 7.12L259.22 7.12Q259.22 6.61 259.22 6.30L259.22 6.30L259.22 5.66L259.22 5.66Q259.22 5.04 259.17 4.63L259.17 4.63L259.17 4.63Q259.13 4.30 258.80 4.12L258.80 4.12L258.80 4.12Q258.47 3.93 258.12 3.92L258.12 3.92L258.12 3.92Q257.82 3.91 257.82 3.71ZM269.42 3.68L269.42 3.68L269.42 3.68Q269.42 3.64 269.44 3.60L269.44 3.60L269.44 3.60Q269.46 3.56 269.55 3.50L269.55 3.50L269.55 3.50Q269.64 3.44 269.78 3.44L269.78 3.44L270.16 3.44L270.16 3.44Q270.49 3.44 271.24 3.49L271.24 3.49L271.24 3.49Q271.99 3.53 273.20 3.53L273.20 3.53L273.20 3.53Q274.19 3.53 274.96 3.49L274.96 3.49L274.96 3.49Q275.73 3.46 276.37 3.46L276.37 3.46L276.37 3.46Q276.61 3.46 276.61 3.79L276.61 3.79L276.61 3.79Q276.61 3.92 276.58 4.11L276.58 4.11L276.58 4.11Q276.56 4.30 276.50 4.61L276.50 4.61L276.50 4.61Q276.44 4.93 276.42 5.22L276.42 5.22L276.42 5.22Q276.39 5.50 276.21 5.50L276.21 5.50L276.21 5.50Q276.01 5.50 276.01 5.22L276.01 5.22L276.01 5.22Q276.01 4.30 275.37 4.26L275.37 4.26L275.37 4.26Q273.25 4.09 272.85 4.09L272.85 4.09L272.85 4.09Q272.22 4.09 272.07 4.24L272.07 4.24L272.07 4.24Q271.92 4.40 271.91 4.87L271.91 4.87L271.91 4.87Q271.91 4.94 271.91 4.98L271.91 4.98L271.91 4.98Q271.87 5.74 271.87 7.32L271.87 7.32L271.87 7.32Q271.87 8.01 272.12 8.02L272.12 8.02L272.12 8.02Q272.19 8.02 272.31 8.03L272.31 8.03L272.31 8.03Q272.43 8.04 272.47 8.04L272.47 8.04L272.47 8.04Q272.57 8.04 272.76 8.03L272.76 8.03L272.76 8.03Q272.96 8.02 273.07 8.02L273.07 8.02L273.50 8.02L273.50 8.02Q274.34 8.02 274.62 7.97L274.62 7.97L274.62 7.97Q274.89 7.92 275.11 7.77L275.11 7.77L275.11 7.77Q275.24 7.69 275.31 7.57L275.31 7.57L275.31 7.57Q275.38 7.46 275.41 7.31L275.41 7.31L275.41 7.31Q275.44 7.15 275.48 7.08L275.48 7.08L275.48 7.08Q275.52 7.01 275.65 7.01L275.65 7.01L275.65 7.01Q275.77 7.01 275.80 7.06L275.80 7.06L275.80 7.06Q275.83 7.10 275.83 7.24L275.83 7.24L275.83 7.24Q275.83 7.34 275.76 7.73L275.76 7.73L275.76 7.73Q275.70 8.12 275.70 8.40L275.70 8.40L275.70 8.40Q275.70 8.67 275.75 9.05L275.75 9.05L275.75 9.05Q275.80 9.44 275.80 9.55L275.80 9.55L275.80 9.55Q275.80 9.77 275.75 9.83L275.75 9.83L275.75 9.83Q275.70 9.90 275.60 9.90L275.60 9.90L275.60 9.90Q275.37 9.90 275.31 9.55L275.31 9.55L275.31 9.55Q275.31 9.52 275.30 9.42L275.30 9.42L275.30 9.42Q275.28 9.32 275.27 9.28L275.27 9.28L275.27 9.28Q275.27 9.24 275.24 9.16L275.24 9.16L275.24 9.16Q275.21 9.09 275.18 9.04L275.18 9.04L275.18 9.04Q275.16 9.00 275.11 8.95L275.11 8.95L275.11 8.95Q275.07 8.90 275.00 8.88L275.00 8.88L275.00 8.88Q274.81 8.79 274.30 8.74L274.30 8.74L274.30 8.74Q273.80 8.68 273.64 8.68L273.64 8.68L272.43 8.68L272.43 8.68Q271.85 8.68 271.85 8.95L271.85 8.95L271.85 8.95Q271.85 9.35 271.84 9.96L271.84 9.96L271.84 9.96Q271.82 10.57 271.82 10.96L271.82 10.96L271.82 10.96Q271.82 11.06 271.82 11.25L271.82 11.25L271.82 11.25Q271.81 11.44 271.81 11.52L271.81 11.52L271.81 11.52Q271.81 11.80 271.87 12.08L271.87 12.08L271.87 12.08Q271.92 12.36 272.19 12.67L272.19 12.67L272.19 12.67Q272.47 12.98 272.93 12.98L272.93 12.98L272.93 12.98Q273.35 12.98 273.35 13.23L273.35 13.23L273.35 13.23Q273.35 13.27 273.32 13.33L273.32 13.33L273.32 13.33Q273.29 13.38 273.19 13.44L273.19 13.44L273.19 13.44Q273.08 13.50 272.92 13.50L272.92 13.50L272.92 13.50Q272.69 13.50 272.21 13.44L272.21 13.44L272.21 13.44Q271.73 13.38 271.56 13.38L271.56 13.38L271.56 13.38Q271.17 13.38 270.68 13.43L270.68 13.43L270.68 13.43Q270.20 13.47 269.86 13.47L269.86 13.47L269.86 13.47Q269.58 13.47 269.58 13.31L269.58 13.31L269.58 13.31Q269.58 13.13 269.65 13.09L269.65 13.09L269.65 13.09Q269.71 13.05 270.19 12.88L270.19 12.88L270.19 12.88Q270.55 12.75 270.63 12.13L270.63 12.13L270.63 12.13Q270.72 11.51 270.73 9.60L270.73 9.60L270.73 9.60Q270.73 8.86 270.73 8.44L270.73 8.44L270.73 8.44Q270.73 8.06 270.75 7.26L270.75 7.26L270.75 7.26Q270.77 6.45 270.77 6.01L270.77 6.01L270.77 5.19L270.77 5.19Q270.77 4.27 270.12 3.96L270.12 3.96L270.12 3.96Q270.02 3.92 269.88 3.90L269.88 3.90L269.88 3.90Q269.74 3.88 269.65 3.88L269.65 3.88L269.65 3.88Q269.56 3.88 269.49 3.83L269.49 3.83L269.49 3.83Q269.42 3.78 269.42 3.68ZM284.17 3.71L284.17 3.71L284.17 3.71Q284.17 3.50 284.56 3.50L284.56 3.50L284.56 3.50Q284.70 3.50 285.21 3.53L285.21 3.53L285.21 3.53Q285.71 3.56 286.15 3.56L286.15 3.56L286.15 3.56Q286.41 3.56 286.66 3.54L286.66 3.54L286.66 3.54Q286.90 3.53 287.38 3.53L287.38 3.53L287.38 3.53Q287.76 3.53 287.76 3.72L287.76 3.72L287.76 3.72Q287.76 3.84 287.11 4.10L287.11 4.10L287.11 4.10Q286.66 4.28 286.66 5.71L286.66 5.71L286.66 5.71Q286.66 7.60 286.64 9.05L286.64 9.05L286.64 9.05Q286.62 10.50 286.62 10.89L286.62 10.89L286.62 10.89Q286.62 12.07 286.97 12.59L286.97 12.59L286.97 12.59Q287.28 13.02 287.64 13.02L287.64 13.02L287.64 13.02Q287.67 13.02 287.78 13.03L287.78 13.03L287.78 13.03Q287.90 13.03 287.92 13.03L287.92 13.03L287.92 13.03Q288.02 13.03 288.12 13.08L288.12 13.08L288.12 13.08Q288.22 13.13 288.22 13.19L288.22 13.19L288.22 13.19Q288.22 13.34 288.14 13.39L288.14 13.39L288.14 13.39Q288.06 13.44 287.87 13.44L287.87 13.44L287.87 13.44Q287.45 13.44 287.09 13.41L287.09 13.41L287.09 13.41Q286.73 13.38 286.54 13.38L286.54 13.38L286.54 13.38Q286.15 13.38 285.68 13.42L285.68 13.42L285.68 13.42Q285.22 13.45 285.00 13.45L285.00 13.45L285.00 13.45Q284.37 13.45 284.37 13.24L284.37 13.24L284.37 13.24Q284.37 13.12 284.50 13.07L284.50 13.07L284.50 13.07Q284.63 13.02 284.80 13.00L284.80 13.00L284.80 13.00Q284.97 12.98 285.15 12.82L285.15 12.82L285.15 12.82Q285.33 12.66 285.40 12.35L285.40 12.35L285.40 12.35Q285.43 12.25 285.49 10.76L285.49 10.76L285.49 10.76Q285.56 9.27 285.56 8.61L285.56 8.61L285.56 7.81L285.56 7.81Q285.56 7.63 285.56 7.12L285.56 7.12L285.56 7.12Q285.57 6.61 285.57 6.30L285.57 6.30L285.57 5.66L285.57 5.66Q285.57 5.04 285.52 4.63L285.52 4.63L285.52 4.63Q285.47 4.30 285.14 4.12L285.14 4.12L285.14 4.12Q284.82 3.93 284.47 3.92L284.47 3.92L284.47 3.92Q284.17 3.91 284.17 3.71ZM295.76 3.65L295.76 3.65L295.76 3.65Q295.76 3.46 296.16 3.46L296.16 3.46L296.16 3.46Q296.21 3.46 296.34 3.47L296.34 3.47L296.34 3.47Q296.46 3.49 296.53 3.49L296.53 3.49L296.53 3.49Q296.58 3.49 297.85 3.52L297.85 3.52L297.85 3.52Q299.12 3.56 299.95 3.56L299.95 3.56L299.95 3.56Q300.24 3.56 301.40 3.53L301.40 3.53L301.40 3.53Q302.55 3.50 302.75 3.50L302.75 3.50L302.75 3.50Q303.02 3.50 303.02 3.82L303.02 3.82L303.02 3.82Q303.02 3.91 302.93 4.38L302.93 4.38L302.93 4.38Q302.85 4.84 302.85 5.25L302.85 5.25L302.85 5.25Q302.85 5.38 302.78 5.47L302.78 5.47L302.78 5.47Q302.71 5.56 302.62 5.56L302.62 5.56L302.62 5.56Q302.41 5.56 302.41 5.26L302.41 5.26L302.41 5.26Q302.41 4.89 302.18 4.58L302.18 4.58L302.18 4.58Q301.94 4.27 301.59 4.26L301.59 4.26L301.59 4.26Q300.33 4.16 299.66 4.16L299.66 4.16L299.29 4.16L299.29 4.16Q298.56 4.16 298.44 4.26L298.44 4.26L298.44 4.26Q298.33 4.37 298.30 5.01L298.30 5.01L298.30 5.01Q298.24 6.02 298.24 7.35L298.24 7.35L298.24 7.35Q298.24 8.05 298.51 8.06L298.51 8.06L298.86 8.06L299.45 8.06L299.88 8.06L299.88 8.06Q300.72 8.06 301.00 8.01L301.00 8.01L301.00 8.01Q301.28 7.95 301.50 7.80L301.50 7.80L301.50 7.80Q301.77 7.62 301.83 7.28L301.83 7.28L301.83 7.28Q301.87 7.04 302.02 7.04L302.02 7.04L302.02 7.04Q302.15 7.04 302.18 7.08L302.18 7.08L302.18 7.08Q302.20 7.13 302.20 7.27L302.20 7.27L302.20 7.27Q302.20 7.36 302.15 7.91L302.15 7.91L302.15 7.91Q302.09 8.46 302.09 8.74L302.09 8.74L302.09 8.74Q302.09 9.00 302.11 9.24L302.11 9.24L302.11 9.24Q302.13 9.48 302.13 9.59L302.13 9.59L302.13 9.59Q302.13 9.94 302.04 9.94L302.04 9.94L302.04 9.94Q301.83 9.94 301.73 9.60L301.73 9.60L301.73 9.60Q301.53 9.02 301.38 8.92L301.38 8.92L301.38 8.92Q301.08 8.72 300.03 8.72L300.03 8.72L300.03 8.72Q299.61 8.72 299.35 8.72L299.35 8.72L299.35 8.72Q299.10 8.72 299.02 8.71L299.02 8.71L299.02 8.71Q298.94 8.71 298.89 8.71L298.89 8.71L298.89 8.71Q298.84 8.71 298.80 8.71L298.80 8.71L298.80 8.71Q298.23 8.71 298.23 8.97L298.23 8.97L298.23 8.97Q298.23 9.38 298.21 9.99L298.21 9.99L298.21 9.99Q298.20 10.60 298.20 10.99L298.20 10.99L298.20 11.55L298.20 11.55Q298.20 12.56 298.54 12.66L298.54 12.66L298.54 12.66Q298.89 12.77 299.14 12.77L299.14 12.77L299.14 12.77Q300.19 12.77 300.98 12.67L300.98 12.67L300.98 12.67Q301.77 12.57 302.17 12.42L302.17 12.42L302.17 12.42Q302.57 12.28 302.83 12.10L302.83 12.10L302.83 12.10Q303.10 11.93 303.18 11.78L303.18 11.78L303.18 11.78Q303.25 11.63 303.33 11.54L303.33 11.54L303.33 11.54Q303.41 11.44 303.49 11.44L303.49 11.44L303.49 11.44Q303.66 11.44 303.66 11.68L303.66 11.68L303.66 11.68Q303.66 12.28 303.06 12.89L303.06 12.89L303.06 12.89Q302.46 13.51 302.01 13.51L302.01 13.51L302.01 13.51Q301.00 13.51 299.73 13.44L299.73 13.44L299.73 13.44Q298.47 13.37 298.16 13.37L298.16 13.37L298.16 13.37Q297.77 13.37 297.18 13.43L297.18 13.43L297.18 13.43Q296.59 13.50 296.25 13.50L296.25 13.50L296.25 13.50Q295.96 13.50 295.96 13.36L295.96 13.36L295.96 13.36Q295.96 13.23 295.96 13.19L295.96 13.19L295.96 13.19Q295.96 13.15 296.00 13.12L296.00 13.12L296.00 13.12Q296.04 13.09 296.09 13.08L296.09 13.08L296.09 13.08Q296.14 13.08 296.27 13.03L296.27 13.03L296.27 13.03Q296.41 12.99 296.56 12.92L296.56 12.92L296.56 12.92Q296.90 12.75 297.00 12.26L297.00 12.26L297.00 12.26Q297.11 11.77 297.11 10.21L297.11 10.21L297.11 8.47L297.11 8.47Q297.11 8.09 297.13 7.29L297.13 7.29L297.13 7.29Q297.15 6.50 297.15 6.05L297.15 6.05L297.15 6.05Q297.15 5.67 297.12 4.77L297.12 4.77L297.12 4.77Q297.11 4.37 296.77 4.14L296.77 4.14L296.77 4.14Q296.44 3.92 295.99 3.91L295.99 3.91L295.99 3.91Q295.76 3.91 295.76 3.65ZM311.22 3.64L311.22 3.64L311.22 3.64Q311.22 3.51 311.34 3.49L311.34 3.49L311.34 3.49Q311.46 3.47 311.93 3.47L311.93 3.47L313.15 3.47L313.15 3.47Q313.50 3.47 314.44 3.44L314.44 3.44L314.44 3.44Q315.38 3.42 315.88 3.42L315.88 3.42L315.88 3.42Q316.85 3.42 317.81 3.71L317.81 3.71L317.81 3.71Q318.78 4.00 319.59 4.56L319.59 4.56L319.59 4.56Q320.40 5.11 320.91 6.00L320.91 6.00L320.91 6.00Q321.41 6.89 321.41 7.98L321.41 7.98L321.41 7.98Q321.41 8.96 321.28 9.68L321.28 9.68L321.28 9.68Q321.15 10.40 320.84 10.93L320.84 10.93L320.84 10.93Q320.53 11.45 320.22 11.78L320.22 11.78L320.22 11.78Q319.91 12.11 319.38 12.56L319.38 12.56L319.38 12.56Q318.96 12.89 318.16 13.19L318.16 13.19L318.16 13.19Q317.37 13.48 316.53 13.48L316.53 13.48L316.53 13.48Q316.44 13.48 315.10 13.45L315.10 13.45L315.10 13.45Q313.75 13.41 313.17 13.41L313.17 13.41L313.17 13.41Q312.68 13.41 312.26 13.45L312.26 13.45L312.26 13.45Q311.84 13.48 311.77 13.48L311.77 13.48L311.77 13.48Q311.43 13.48 311.43 13.30L311.43 13.30L311.43 13.30Q311.43 13.19 311.48 13.14L311.48 13.14L311.48 13.14Q311.53 13.09 311.69 13.05L311.69 13.05L311.69 13.05Q311.85 13.01 311.92 12.98L311.92 12.98L311.92 12.98Q312.14 12.88 312.33 12.61L312.33 12.61L312.33 12.61Q312.52 12.33 312.52 12.07L312.52 12.07L312.52 12.07Q312.52 11.28 312.53 10.07L312.53 10.07L312.53 10.07Q312.54 8.85 312.54 8.27L312.54 8.27L312.54 8.27Q312.54 7.77 312.53 6.70L312.53 6.70L312.53 6.70Q312.52 5.63 312.52 4.72L312.52 4.72L312.52 4.72Q312.52 4.48 312.29 4.23L312.29 4.23L312.29 4.23Q312.06 3.99 311.78 3.98L311.78 3.98L311.78 3.98Q311.58 3.96 311.49 3.95L311.49 3.95L311.49 3.95Q311.40 3.93 311.31 3.86L311.31 3.86L311.31 3.86Q311.22 3.78 311.22 3.64ZM313.70 11.47L313.70 11.47L313.70 11.47Q313.70 11.73 313.70 11.90L313.70 11.90L313.70 11.90Q313.71 12.07 313.76 12.21L313.76 12.21L313.76 12.21Q313.81 12.35 313.84 12.40L313.84 12.40L313.84 12.40Q313.87 12.46 314.01 12.53L314.01 12.53L314.01 12.53Q314.15 12.60 314.22 12.62L314.22 12.62L314.22 12.62Q314.30 12.64 314.55 12.71L314.55 12.71L314.55 12.71Q314.80 12.78 314.97 12.82L314.97 12.82L314.97 12.82Q315.46 12.96 315.99 12.96L315.99 12.96L316.27 12.96L316.27 12.96Q317.23 12.96 317.90 12.69L317.90 12.69L317.90 12.69Q318.57 12.42 319.19 11.83L319.19 11.83L319.19 11.83Q320.22 10.84 320.22 8.61L320.22 8.61L320.22 8.61Q320.22 7.49 319.78 6.58L319.78 6.58L319.78 6.58Q319.34 5.67 318.63 5.13L318.63 5.13L318.63 5.13Q317.91 4.59 317.09 4.30L317.09 4.30L317.09 4.30Q316.26 4.02 315.42 4.02L315.42 4.02L315.42 4.02Q315.04 4.02 314.87 4.02L314.87 4.02L314.87 4.02Q314.69 4.02 314.46 4.05L314.46 4.05L314.46 4.05Q314.23 4.09 314.15 4.11L314.15 4.11L314.15 4.11Q314.08 4.13 313.96 4.25L313.96 4.25L313.96 4.25Q313.85 4.37 313.83 4.45L313.83 4.45L313.83 4.45Q313.81 4.54 313.77 4.78L313.77 4.78L313.77 4.78Q313.74 5.03 313.74 5.21L313.74 5.21L313.74 5.21Q313.74 5.39 313.74 5.80L313.74 5.80L313.74 5.80Q313.74 6.10 313.73 7.24L313.73 7.24L313.73 7.24Q313.71 8.39 313.71 8.48L313.71 8.48L313.71 8.48Q313.71 9.32 313.70 10.30L313.70 10.30L313.70 10.30Q313.70 11.28 313.70 11.47Z"></path></g></svg>